<svg width="18" height="18" viewBox="0 0 18 18" fill="none" xmlns="http://www.w3.org/2000/svg">
<g clip-path="url(#clip0_2908_25)">
<path d="M13.8709 5.39205C13.9091 5.11395 13.8352 4.83208 13.6657 4.60837C13.4961 4.38466 13.2447 4.23739 12.9667 4.19892L7.36969 3.42656C7.09129 3.38822 6.80907 3.46204 6.5851 3.63179C6.36113 3.80153 6.21377 4.05329 6.17543 4.33169C6.13709 4.61008 6.21091 4.8923 6.38065 5.11627C6.55039 5.34024 6.80215 5.4876 7.08055 5.52594L10.144 5.94836L3.65209 10.8685C3.4282 11.0382 3.28088 11.2899 3.24255 11.5682C3.20422 11.8465 3.27802 12.1286 3.44771 12.3525C3.6174 12.5764 3.86908 12.7237 4.14739 12.7621C4.42569 12.8004 4.70782 12.7266 4.93172 12.5569L11.4236 7.63675L11.0017 10.6997C10.9828 10.8376 10.9911 10.9778 11.0263 11.1124C11.0615 11.2471 11.1229 11.3734 11.207 11.4843C11.291 11.5952 11.3961 11.6885 11.5162 11.7588C11.6363 11.8291 11.769 11.875 11.9069 11.894C12.0447 11.913 12.185 11.9046 12.3196 11.8694C12.4542 11.8342 12.5806 11.7728 12.6915 11.6888C12.8024 11.6047 12.8956 11.4997 12.9659 11.3796C13.0362 11.2595 13.0821 11.1267 13.1011 10.9889L13.8709 5.39205Z" fill="#F3FFF8"/>
</g>
<defs>
<clipPath id="clip0_2908_25">
<rect width="16.9481" height="16.9481" fill="white" transform="translate(17.0273 0.0793457) rotate(90.2681)"/>
</clipPath>
</defs>
</svg>
