<svg width="71" height="71" viewBox="0 0 71 71" fill="none" xmlns="http://www.w3.org/2000/svg">
<path d="M25.6399 25.6398C23.0245 25.6398 20.5161 24.6008 18.6667 22.7514C16.8173 20.902 15.7783 18.3937 15.7783 15.7782C15.7783 13.1628 16.8173 10.6544 18.6667 8.80502C20.5161 6.95561 23.0245 5.91663 25.6399 5.91663H35.5V25.6398M25.6399 25.6398H35.5M25.6399 25.6398C23.0249 25.6398 20.5169 26.6787 18.6678 28.5278C16.8186 30.3769 15.7798 32.8849 15.7798 35.5C15.7798 38.115 16.8186 40.623 18.6678 42.4721C20.5169 44.3213 23.0249 45.3601 25.6399 45.3601H35.5V25.6398" stroke="white" stroke-width="3"/>
<path d="M55.2237 35.4999C55.2237 38.1154 54.1848 40.6237 52.3353 42.4731C50.4859 44.3225 47.9776 45.3615 45.3621 45.3615C42.7467 45.3615 40.2383 44.3225 38.3889 42.4731C36.5395 40.6237 35.5005 38.1154 35.5005 35.4999C35.5005 32.8844 36.5395 30.3761 38.3889 28.5267C40.2383 26.6773 42.7467 25.6383 45.3621 25.6383C47.9776 25.6383 50.4859 26.6773 52.3353 28.5267C54.1848 30.3761 55.2237 32.8844 55.2237 35.4999ZM25.6404 45.363H35.5005V55.2231C35.4999 57.1731 34.9212 59.0792 33.8374 60.7003C32.7536 62.3214 31.2134 63.5847 29.4117 64.3306C27.6099 65.0764 25.6275 65.2713 23.715 64.8905C21.8025 64.5097 20.0459 63.5704 18.6672 62.1913C17.2885 60.8122 16.3497 59.0553 15.9695 57.1427C15.5893 55.2301 15.7847 53.2477 16.5311 51.4462C17.2775 49.6446 18.5413 48.1049 20.1627 47.0216C21.7841 45.9382 23.6904 45.363 25.6404 45.363Z" stroke="white" stroke-width="3"/>
<path d="M35.5 5.91663H45.3601C47.9756 5.91663 50.4839 6.95561 52.3333 8.80502C54.1827 10.6544 55.2217 13.1628 55.2217 15.7782C55.2217 18.3937 54.1827 20.902 52.3333 22.7514C50.4839 24.6008 47.9756 25.6398 45.3601 25.6398H35.5V5.91663Z" stroke="white" stroke-width="3"/>
</svg>
